# xmcd CD database file
#
# Track frame offsets:
#	150
#	16425
#	35265
#	46907
#	66620
#	93360
#	116342
#	124237
#	140850
#	155657
#	192255
#	207582
#	225707
#	237755
#	251130
#	270890
#	284237
#	296565
#	313957
#	331185
#
# Disc length: 4638 seconds
#
# Revision: 6
# Processed by: cddbd v1.5.2PL0 Copyright (c) Steve Scherf et al.
# Submitted via: CDex 1.70beta2
#
DISCID=39121c14
DTITLE=Various Artist - 100 svenska visor 1965-1995 - CD 2
DYEAR=1996
DGENRE=Viser
TTITLE0=Rune Andersson - Fru Spetz
TTITLE1=Lena Andersson - Om du nånsin kommer fram till Samarkand
TTITLE2=Lasse Göransson - Tack för juni månad
TTITLE3=Barbro Hörberg - Vaggvisa för vakna
TTITLE4=Östen Warnebring - Kivikspolka
TTITLE5=Sven-Bertil Taube - En sång om frihet
TTITLE6=Margareta Kjellberg - Dans en trappa upp
TTITLE7=Lasse Berghagen - Flirtige Knut
TTITLE8=Bernt Staf - Vårbappo
TTITLE9=Anita Lindblom - Gigi
TTITLE10=Folk och Rackare - Näs Ingars polska
TTITLE11=Ola Magnell - Höstkänning
TTITLE12=Finn Zetterholm - Sång till fars dag
TTITLE13=Marie Bergman - Ingen kommer undan politiken
TTITLE14=Mikael Wiehe - Titanic (Andraklasspassagerarens sista sång)
TTITLE15=John Ulf Andersson - Till Christina för trumpet och änglakör
TTITLE16=Ulf Lundell - Kärlekens hundar
TTITLE17=Maritza Horn - Lejonbruden
TTITLE18=Gösta Linderholm - Rulla in en boll och låt den rulla
TTITLE19=Staffan Percy - Drömmens skepp
EXTD=JC YEAR: 1996
EXTT0=Rune Andersson
EXTT1=Lena Andersson
EXTT2=Lasse Göransson
EXTT3=Barbro Högberg
EXTT4=Östen Warnerbring
EXTT5=Sven-Bertil Taube
EXTT6=Margareta Kjellberg
EXTT7=Lasse Berghagen
EXTT8=Bernt Staf
EXTT9=Anita Lindblom
EXTT10=Folk och Rackare
EXTT11=Ola Magnell
EXTT12=Finn Zetterholm
EXTT13=Marie Bergman
EXTT14=Mikael Wiehe
EXTT15=John Ulf Anderson
EXTT16=Ulf Lundell
EXTT17=Maritza Horn
EXTT18=Gösta Linderholm
EXTT19=Staffan Percy
PLAYORDER=
